<?xml version="1.0" encoding="utf-8"?>
<svg xmlns="http://www.w3.org/2000/svg" viewBox="0 0 48 48" width="144" height="144">
  <path d="M24.5 4C20.706653 4 17.10517 4.8454773 13.871094 6.3398438 A 1.50015 1.50015 0 1 0 15.128906 9.0625C17.98483 7.7428663 21.151347 7 24.5 7C27.831591 7 31.00171 7.7471558 33.867188 9.078125 A 1.5003358 1.5003358 0 1 0 35.132812 6.3574219C31.888289 4.8503911 28.280409 4 24.5 4 z M 9.4824219 9.2890625 A 1.50015 1.50015 0 0 0 8.5585938 9.6347656C6.9824865 10.904555 5.5536957 12.353697 4.3125 13.962891 A 1.50015 1.50015 0 1 0 6.6875 15.794922C7.7803043 14.378116 9.0435136 13.096914 10.441406 11.970703 A 1.50015 1.50015 0 0 0 9.4824219 9.2890625 z M 25.580078 10.050781C24.740078 9.9907813 24.05 10.640703 24 11.470703C23.96 12.290703 24.589922 13.000781 25.419922 13.050781C31.779922 13.400781 37.150078 17.310078 39.580078 22.830078L39.589844 22.830078C41.039844 23.370078 42.350234 24.170391 43.490234 25.150391C41.610234 16.810391 34.400078 10.540781 25.580078 10.050781 z M 19.480469 10.714844 A 1.50015 1.50015 0 0 0 19.082031 10.78125C10.955335 13.137533 5 20.639123 5 29.5C5 30.203846 5.0366619 31.699125 5.2773438 33.681641 A 1.5002941 1.5002941 0 1 0 8.2558594 33.318359C8.0325415 31.478875 8 30.096154 8 29.5C8 21.982877 13.048665 15.653823 19.917969 13.662109 A 1.50015 1.50015 0 0 0 19.480469 10.714844 z M 24.5 16C17.06 16 11 22.06 11 29.5C11 30.71 11.130078 35.060234 12.830078 39.990234C13.050078 40.610234 13.63 41 14.25 41C14.41 41 14.580234 40.969922 14.740234 40.919922C15.520234 40.649922 15.939922 39.789766 15.669922 39.009766C14.119922 34.519766 14 30.6 14 29.5C14 23.71 18.71 19 24.5 19C27.39 19 30.160859 20.220312 32.130859 22.320312C33.260859 22.060312 34.440391 21.949531 35.650391 22.019531C35.610391 21.879531 35.539219 21.739141 35.449219 21.619141C32.899219 18.099141 28.81 16 24.5 16 z M 24.5 22C20.36 22 17 25.36 17 29.5C17 30.3 17.119453 37.509375 21.189453 43.359375C21.479453 43.769375 21.949922 44 22.419922 44C22.719922 44 23.019297 43.910469 23.279297 43.730469C23.959297 43.260469 24.120391 42.320625 23.650391 41.640625C20.040391 36.460625 20 29.78 20 29.5C20 27.02 22.02 25 24.5 25C25.13 25 25.729297 25.129375 26.279297 25.359375C27.089297 24.629375 27.990938 24.000234 28.960938 23.490234C27.710938 22.550234 26.16 22 24.5 22 z M 35 24C32.184875 24 29.370156 25.074656 27.222656 27.222656C22.927656 31.518656 22.926656 38.482344 27.222656 42.777344C31.518656 47.072344 38.482344 47.073344 42.777344 42.777344C47.072344 38.481344 47.073344 31.518656 42.777344 27.222656C40.629344 25.074656 37.815125 24 35 24 z M 35 26.929688C35.553 26.929688 36 27.376687 36 27.929688L36 34L42.070312 34C42.622312 34 43.070312 34.447 43.070312 35C43.070312 35.553 42.623312 36 42.070312 36L36 36L36 42.070312C36 42.622312 35.553 43.070312 35 43.070312C34.724 43.070312 34.473969 42.958344 34.292969 42.777344C34.111969 42.596344 34 42.346313 34 42.070312L34 36L27.929688 36C27.653688 36 27.403656 35.888031 27.222656 35.707031C27.041656 35.526031 26.929687 35.276 26.929688 35C26.929688 34.448 27.376687 34 27.929688 34L34 34L34 27.929688C34 27.377688 34.447 26.929688 35 26.929688 z" fill="#FFB151" />
</svg>